<?xml version="1.0" encoding="iso-8859-1"?>
<!-- Generator: Adobe Illustrator 18.0.0, SVG Export Plug-In . SVG Version: 6.00 Build 0)  -->
<!DOCTYPE svg PUBLIC "-//W3C//DTD SVG 1.1//EN" "http://www.w3.org/Graphics/SVG/1.1/DTD/svg11.dtd">
<svg xmlns="http://www.w3.org/2000/svg" xmlns:xlink="http://www.w3.org/1999/xlink" version="1.1" id="Capa_1" x="0px" y="0px" viewBox="0 0 492.927 492.927" style="enable-background:new 0 0 492.927 492.927;" xml:space="preserve" width="512px" height="512px">
<g id="XMLID_272_">
	<path id="XMLID_276_" d="M409.556,406.216c6.92-27.57,7.387-55.911,1.518-83.725c-7.671-36.358-18.191-81.871-19.433-87.477   c-2.678-12.002-11.787-20.901-22.959-23.955l-125.628,20.707c-2.884,0.474-5.579,1.482-8.131,2.75   c-4.198,2.06-7.903,5.011-10.708,8.899c-4.491,6.269-6.301,13.908-5.068,21.532c2.084,12.691,12.299,22.096,24.549,23.834   c2.822,0.402,5.693,0.531,8.625,0.049l52.239-8.506c4.504-0.713,8.61,2.869,9.205,6.631c0.721,4.385-2.245,8.514-6.624,9.228   l-52.238,8.507c-6.379,1.066-8.738,0.432-10.984,0.256c-0.625,5.315-1.97,10.557-4.391,15.52   c-5.645,11.569-15.457,20.244-27.629,24.412c-13.067,4.506-27.191,3.207-39.202-3.631c-5.597,7.447-13.325,13.299-22.448,16.482   c-11.092,3.849-22.91,3.711-34.632-1.273l28.284,82.309c11.109,32.406,41.609,54.163,75.871,54.163h105.457   c36.572,0,68.527-24.747,77.666-60.175L409.556,406.216z" fill="#FFDA44"/>
	<path id="XMLID_273_" d="M144.941,342.559c13.77-4.786,22.063-18.022,21.391-31.866c6.172,16.178,23.906,24.669,40.338,19   c12.844-4.417,21.023-16.172,21.6-28.966c-12.893-6.165-22.514-18.191-24.965-33.191c-1.397-8.602-0.227-17.196,3.143-25.006   c1.266-2.949,2.805-5.819,4.73-8.497c7.023-9.756,17.41-16.188,29.295-18.118l30-4.948l77.217-12.73l31.718-135.825   c4.522-19.439-7.554-38.875-26.987-43.412c-19.432-4.562-38.883,7.545-43.418,26.978L271.129,208.21L208.771,24.539   c-6.428-18.896-26.873-29.045-45.857-22.601c-18.904,6.414-29.021,26.939-22.592,45.834l35.498,104.59l7.922,23.339   c-5.965-5.846-13.807-9.493-22.256-9.493c-3.461,0-6.99,0.569-10.438,1.765c-16.785,5.765-25.721,24.043-19.943,40.823l5.176,15.04   c-6.029-8.756-15.984-13.998-26.471-13.998c-3.465,0-7.008,0.567-10.455,1.78c-16.771,5.835-25.605,24.147-19.77,40.901   l24.467,70.27C109.907,339.673,128.361,348.364,144.941,342.559z" fill="#FFDA44"/>
</g>
<g>
</g>
<g>
</g>
<g>
</g>
<g>
</g>
<g>
</g>
<g>
</g>
<g>
</g>
<g>
</g>
<g>
</g>
<g>
</g>
<g>
</g>
<g>
</g>
<g>
</g>
<g>
</g>
<g>
</g>
</svg>
