<?xml version="1.0" encoding="iso-8859-1"?>
<!-- Generator: Adobe Illustrator 19.0.0, SVG Export Plug-In . SVG Version: 6.00 Build 0)  -->
<svg version="1.1" id="Layer_1" xmlns="http://www.w3.org/2000/svg" xmlns:xlink="http://www.w3.org/1999/xlink" x="0px" y="0px"
	 viewBox="0 0 512 512" style="enable-background:new 0 0 512 512;" xml:space="preserve">
<g transform="translate(0 1)">
	<path style="fill:#FDC794;" d="M429.559,104.003c-1.736-19.959-19.092-35.58-39.051-35.58c-17.356,0-32.108,11.281-37.315,26.902
		h-1.736V72.763c0-21.695-17.356-39.051-39.051-39.051s-39.051,17.356-39.051,39.051V46.729c0-21.695-17.356-39.051-39.051-39.051
		s-39.051,17.356-39.051,39.051v17.356c0-21.695-17.356-39.051-39.051-39.051s-39.051,17.356-39.051,39.051v3.471v122.359
		c0,16.488-43.39,43.39-43.39,90.251v39.919l0,0c0,88.515,52.068,112.814,52.068,112.814v43.39c0,19.092,15.62,34.712,34.712,34.712
		h199.593c17.356,0,26.034-15.62,26.034-32.976v-45.125c33.844-45.125,43.39-39.051,43.39-142.319V176.898v-69.424V104.003
		L429.559,104.003z"/>
	<g>
		<path style="fill:#F9A671;" d="M160.542,458.932c-1.736,0-4.339-0.868-6.075-2.603c0,0-8.678-7.81-24.298-16.488
			c-4.339-1.736-5.207-6.942-3.471-11.281c2.603-4.339,7.81-5.207,12.149-3.471c17.356,9.546,26.902,18.224,27.769,18.224
			c3.471,3.471,3.471,8.678,0.868,12.149C164.881,458.064,163.146,458.932,160.542,458.932z"/>
		<path style="fill:#F9A671;" d="M377.492,441.576h-17.356c-5.207,0-8.678-3.471-8.678-8.678c0-5.207,3.471-8.678,8.678-8.678
			h17.356c5.207,0,8.678,3.471,8.678,8.678C386.169,438.105,382.698,441.576,377.492,441.576z"/>
		<path style="fill:#F9A671;" d="M143.186,276.695c-3.471,0-6.942-2.603-8.678-6.075c-0.868-4.339,1.736-9.546,6.075-10.414
			c23.43-6.075,56.407-37.315,76.366-72.895c6.942-12.149,1.736-33.844-9.546-41.654c-10.414-6.942-21.695,2.603-29.505,12.149
			c-15.62,19.092-34.712,35.58-56.407,48.597c-4.339,1.736-9.546,0.868-12.149-3.471c-1.736-4.339-0.868-9.546,3.471-12.149
			c19.959-12.149,37.315-26.902,51.2-44.258c25.166-31.241,46.861-19.959,52.936-15.62c19.092,13.017,26.034,45.125,14.753,64.217
			c-19.092,33.844-54.671,72.027-86.78,80.705C144.922,276.695,144.054,276.695,143.186,276.695z"/>
		<path style="fill:#F9A671;" d="M312.407,233.305c-26.034,0-47.729-21.695-47.729-47.729V72.763
			c0-26.034,21.695-47.729,47.729-47.729c26.034,0,47.729,21.695,47.729,47.729v112.814
			C360.136,211.61,338.441,233.305,312.407,233.305z M312.407,42.39c-16.488,0-30.373,13.885-30.373,30.373v112.814
			c0,16.488,13.885,30.373,30.373,30.373s30.373-13.885,30.373-30.373V72.763C342.78,56.275,328.895,42.39,312.407,42.39z"/>
		<path style="fill:#F9A671;" d="M390.508,224.627c-26.034,0-47.729-21.695-47.729-47.729v-69.424
			c0-26.034,21.695-47.729,47.729-47.729c26.034,0,47.729,21.695,47.729,47.729v69.424
			C438.237,202.932,416.542,224.627,390.508,224.627z M390.508,77.102c-16.488,0-30.373,13.885-30.373,30.373v69.424
			c0,16.488,13.885,30.373,30.373,30.373c16.488,0,30.373-13.885,30.373-30.373v-69.424
			C420.881,90.986,406.997,77.102,390.508,77.102z"/>
		<path style="fill:#F9A671;" d="M233.437,241.983c-13.017,0-26.902,0-36.447-12.149c-2.603-3.471-2.603-7.81,0-11.281
			c6.075-6.075,11.281-16.488,16.488-25.166c0.868-2.603,2.603-4.339,3.471-6.942c5.207-9.546,3.471-25.166-4.339-35.58
			c-3.471-4.339-8.678-9.546-16.488-8.678c-2.603,0.868-5.207,0-6.942-1.736c-1.736-1.736-3.471-4.339-3.471-6.942v-86.78
			C185.708,20.695,207.403-1,233.437-1s47.729,21.695,47.729,47.729v147.525C282.034,221.156,260.339,241.983,233.437,241.983z
			 M216.081,222.892c4.339,1.736,9.546,1.736,17.356,1.736c17.356,0,31.241-13.885,31.241-30.373V46.729
			c0-16.488-13.885-30.373-30.373-30.373s-30.373,13.885-30.373,30.373v78.969c8.678,1.736,17.356,6.942,23.431,15.62
			c11.281,16.488,13.885,39.051,5.207,53.803c-0.868,1.736-2.603,4.339-3.471,6.075
			C225.627,208.139,221.288,215.949,216.081,222.892z"/>
	</g>
</g>
<g>
</g>
<g>
</g>
<g>
</g>
<g>
</g>
<g>
</g>
<g>
</g>
<g>
</g>
<g>
</g>
<g>
</g>
<g>
</g>
<g>
</g>
<g>
</g>
<g>
</g>
<g>
</g>
<g>
</g>
</svg>
